<svg id="图层_1" data-name="图层 1" xmlns="http://www.w3.org/2000/svg" xmlns:xlink="http://www.w3.org/1999/xlink" viewBox="0 0 491 106"><defs><style>.cls-1{fill:none;}.cls-2{clip-path:url(#clip-path);}.cls-3{fill:#f8cbad;}.cls-4{fill:#b4c6e7;}.cls-5{clip-path:url(#clip-path-2);}.cls-6{font-size:10px;font-family:TimesNewRomanPSMT, Times New Roman;}.cls-7{clip-path:url(#clip-path-8);}.cls-8{clip-path:url(#clip-path-14);}.cls-9{clip-path:url(#clip-path-20);}.cls-10{clip-path:url(#clip-path-26);}.cls-11{clip-path:url(#clip-path-32);}.cls-12{clip-path:url(#clip-path-38);}</style><clipPath id="clip-path" transform="translate(-50 -54)"><rect class="cls-1" width="595" height="842"/></clipPath><clipPath id="clip-path-2" transform="translate(-50 -54)"><rect class="cls-1" x="51" y="55" width="491" height="16"/></clipPath><clipPath id="clip-path-8" transform="translate(-50 -54)"><rect class="cls-1" x="51" y="70" width="491" height="16"/></clipPath><clipPath id="clip-path-14" transform="translate(-50 -54)"><rect class="cls-1" x="51" y="85" width="491" height="16"/></clipPath><clipPath id="clip-path-20" transform="translate(-50 -54)"><rect class="cls-1" x="51" y="100" width="491" height="16"/></clipPath><clipPath id="clip-path-26" transform="translate(-50 -54)"><rect class="cls-1" x="51" y="115" width="491" height="16"/></clipPath><clipPath id="clip-path-32" transform="translate(-50 -54)"><rect class="cls-1" x="51" y="130" width="491" height="16"/></clipPath><clipPath id="clip-path-38" transform="translate(-50 -54)"><rect class="cls-1" x="51" y="145" width="491" height="16"/></clipPath></defs><title>table</title><g class="cls-2"><rect class="cls-3" width="51" height="106"/><rect class="cls-4" x="50" width="78" height="106"/><rect class="cls-3" x="127" width="101" height="106"/><rect class="cls-4" x="227" width="62" height="106"/><rect class="cls-3" x="288" width="71" height="106"/><rect class="cls-4" x="358" width="133" height="106"/></g><g class="cls-5"><text class="cls-6" transform="translate(9 11)">Datasets</text></g><g class="cls-5"><text class="cls-6" transform="translate(56 12)">Total viral genes</text></g><g class="cls-5"><text class="cls-6" transform="translate(133 12)">Taxonomic annotation</text></g><g class="cls-5"><text class="cls-6" transform="translate(244 12)">KEGG</text></g><g class="cls-5"><text class="cls-6" transform="translate(305 12)">VGFunC</text></g><g class="cls-5"><text class="cls-6" transform="translate(362 12)">VGFunC increased annotations</text></g><g class="cls-7"><text class="cls-6" transform="translate(18 27)">IBS</text></g><g class="cls-7"><text class="cls-6" transform="translate(73 27)">583,659</text></g><g class="cls-7"><text class="cls-6" transform="translate(162 27)">516,827</text></g><g class="cls-7"><text class="cls-6" transform="translate(242 27)">276,611</text></g><g class="cls-7"><text class="cls-6" transform="translate(308 27)">470,880</text></g><g class="cls-7"><text class="cls-6" transform="translate(409 27)">220,037</text></g><g class="cls-8"><text class="cls-6" transform="translate(17 42)">T2D</text></g><g class="cls-8"><text class="cls-6" transform="translate(73 42)">362,294</text></g><g class="cls-8"><text class="cls-6" transform="translate(162 42)">313,191</text></g><g class="cls-8"><text class="cls-6" transform="translate(242 42)">166,848</text></g><g class="cls-8"><text class="cls-6" transform="translate(308 42)">284,793</text></g><g class="cls-8"><text class="cls-6" transform="translate(409 42)">134,589</text></g><g class="cls-9"><text class="cls-6" transform="translate(19 57)">CD</text></g><g class="cls-9"><text class="cls-6" transform="translate(73 57)">671,020</text></g><g class="cls-9"><text class="cls-6" transform="translate(162 57)">583,808</text></g><g class="cls-9"><text class="cls-6" transform="translate(242 57)">292,984</text></g><g class="cls-9"><text class="cls-6" transform="translate(308 57)">530,029</text></g><g class="cls-9"><text class="cls-6" transform="translate(409 57)">264,582</text></g><g class="cls-10"><text class="cls-6" transform="translate(16 72)">CRC</text></g><g class="cls-10"><text class="cls-6" transform="translate(69 72)">1,489,429</text></g><g class="cls-10"><text class="cls-6" transform="translate(158 72)">1,325,241</text></g><g class="cls-10"><text class="cls-6" transform="translate(242 72)">722,396</text></g><g class="cls-10"><text class="cls-6" transform="translate(304 72)">1,205,490</text></g><g class="cls-10"><text class="cls-6" transform="translate(409 72)">552,547</text></g><g class="cls-11"><text class="cls-6" transform="translate(19 87)">LC</text></g><g class="cls-11"><text class="cls-6" transform="translate(73 87)">245,363</text></g><g class="cls-11"><text class="cls-6" transform="translate(162 87)">210,944</text></g><g class="cls-11"><text class="cls-6" transform="translate(242 87)">110,729</text></g><g class="cls-11"><text class="cls-6" transform="translate(308 87)">192,309</text></g><g class="cls-11"><text class="cls-6" transform="translate(411 87)">92,851</text></g><g class="cls-12"><text class="cls-6" transform="translate(15 102)">Total</text></g><g class="cls-12"><text class="cls-6" transform="translate(69 102)">3,351,765</text></g><g class="cls-12"><text class="cls-6" transform="translate(158 102)">2,950,011</text></g><g class="cls-12"><text class="cls-6" transform="translate(238 102)">1,569,568</text></g><g class="cls-12"><text class="cls-6" transform="translate(304 102)">2,683,501</text></g><g class="cls-12"><text class="cls-6" transform="translate(405 102)">1,264,606</text></g><g class="cls-2"><rect y="15" width="491" height="1"/></g></svg>